<?xml version="1.0" encoding="UTF-8" standalone="no"?>
<!-- Generator: Adobe Illustrator 18.0.0, SVG Export Plug-In . SVG Version: 6.00 Build 0)  -->

<svg
   xmlns:dc="http://purl.org/dc/elements/1.1/"
   xmlns:cc="http://creativecommons.org/ns#"
   xmlns:rdf="http://www.w3.org/1999/02/22-rdf-syntax-ns#"
   xmlns:svg="http://www.w3.org/2000/svg"
   xmlns="http://www.w3.org/2000/svg"
   xmlns:sodipodi="http://sodipodi.sourceforge.net/DTD/sodipodi-0.dtd"
   xmlns:inkscape="http://www.inkscape.org/namespaces/inkscape"
   version="1.1"
   id="Capa_1"
   x="0px"
   y="0px"
   viewBox="0 0 55.999999 55.999999"
   xml:space="preserve"
   inkscape:version="0.91 r"
   sodipodi:docname="facebook.svg"
   width="56"
   height="56"><metadata
     id="metadata3493"><rdf:RDF><cc:Work
         rdf:about=""><dc:format>image/svg+xml</dc:format><dc:type
           rdf:resource="http://purl.org/dc/dcmitype/StillImage" /><dc:title></dc:title></cc:Work></rdf:RDF></metadata><defs
     id="defs3491" /><sodipodi:namedview
     pagecolor="#ffffff"
     bordercolor="#666666"
     borderopacity="1"
     objecttolerance="10"
     gridtolerance="10"
     guidetolerance="10"
     inkscape:pageopacity="0"
     inkscape:pageshadow="2"
     inkscape:window-width="1366"
     inkscape:window-height="731"
     id="namedview3489"
     showgrid="false"
     fit-margin-top="0"
     fit-margin-left="0"
     fit-margin-right="0"
     fit-margin-bottom="0"
     inkscape:zoom="5.8588092"
     inkscape:cx="49.262557"
     inkscape:cy="31.911443"
     inkscape:window-x="0"
     inkscape:window-y="0"
     inkscape:window-maximized="1"
     inkscape:current-layer="layer1" /><g
     id="g3459"
     transform="translate(-0.72415863,-400.07137)" /><g
     id="g3461"
     transform="translate(-0.72415863,-400.07137)" /><g
     id="g3463"
     transform="translate(-0.72415863,-400.07137)" /><g
     id="g3465"
     transform="translate(-0.72415863,-400.07137)" /><g
     id="g3467"
     transform="translate(-0.72415863,-400.07137)" /><g
     id="g3469"
     transform="translate(-0.72415863,-400.07137)" /><g
     id="g3471"
     transform="translate(-0.72415863,-400.07137)" /><g
     id="g3473"
     transform="translate(-0.72415863,-400.07137)" /><g
     id="g3475"
     transform="translate(-0.72415863,-400.07137)" /><g
     id="g3477"
     transform="translate(-0.72415863,-400.07137)" /><g
     id="g3479"
     transform="translate(-0.72415863,-400.07137)" /><g
     id="g3481"
     transform="translate(-0.72415863,-400.07137)" /><g
     id="g3483"
     transform="translate(-0.72415863,-400.07137)" /><g
     id="g3485"
     transform="translate(-0.72415863,-400.07137)" /><g
     id="g3487"
     transform="translate(-0.72415863,-400.07137)" /><g
     inkscape:groupmode="layer"
     id="layer2"
     inkscape:label="Layer 2"
     transform="translate(-8.3279429e-6,-2.2731478)" /><g
     inkscape:groupmode="layer"
     id="layer1"
     inkscape:label="Layer 1"
     transform="translate(-8.3279429e-6,-2.2731478)"><rect
       style="opacity:1;fill:#ffffff;fill-opacity:1;stroke:none;stroke-width:0.40000001;stroke-miterlimit:4;stroke-dasharray:none;stroke-opacity:1"
       id="rect3495"
       width="56.675484"
       height="56"
       x="-0.68272424"
       y="2.2731478" /><path
       style="fill:#3a559f"
       d="m -2.4639241,-3.419081 0,62 33.0187861,0 0,-23.949305 -8.071579,0 0,-9.776766 8.071579,0 0,-8.210759 c 0,-5.971444 4.84076,-10.8122163 10.812214,-10.8122163 l 8.438211,0 0,8.7915383 -6.037971,0 c -1.89742,0 -3.435684,1.538264 -3.435684,3.435684 l 0,6.795887 9.321965,0 -1.288349,9.776764 -8.033616,0 0,23.949173 19.204444,0 0,-62 -62.0000001,0 z"
       id="path3457"
       inkscape:connector-curvature="0" /></g></svg>