<?xml version="1.0" encoding="UTF-8" standalone="no"?>
<!-- Generator: Adobe Illustrator 18.0.0, SVG Export Plug-In . SVG Version: 6.00 Build 0)  -->

<svg
   xmlns:dc="http://purl.org/dc/elements/1.1/"
   xmlns:cc="http://creativecommons.org/ns#"
   xmlns:rdf="http://www.w3.org/1999/02/22-rdf-syntax-ns#"
   xmlns:svg="http://www.w3.org/2000/svg"
   xmlns="http://www.w3.org/2000/svg"
   xmlns:sodipodi="http://sodipodi.sourceforge.net/DTD/sodipodi-0.dtd"
   xmlns:inkscape="http://www.inkscape.org/namespaces/inkscape"
   version="1.1"
   id="Capa_1"
   x="0px"
   y="0px"
   viewBox="0 0 56.000002 56.000002"
   xml:space="preserve"
   inkscape:version="0.91 r"
   sodipodi:docname="twitter.svg"
   width="56"
   height="56"><metadata
     id="metadata43"><rdf:RDF><cc:Work
         rdf:about=""><dc:format>image/svg+xml</dc:format><dc:type
           rdf:resource="http://purl.org/dc/dcmitype/StillImage" /><dc:title></dc:title></cc:Work></rdf:RDF></metadata><defs
     id="defs41" /><sodipodi:namedview
     pagecolor="#ffffff"
     bordercolor="#666666"
     borderopacity="1"
     objecttolerance="10"
     gridtolerance="10"
     guidetolerance="10"
     inkscape:pageopacity="0"
     inkscape:pageshadow="2"
     inkscape:window-width="1366"
     inkscape:window-height="731"
     id="namedview39"
     showgrid="false"
     fit-margin-top="0"
     fit-margin-left="0"
     fit-margin-right="0"
     fit-margin-bottom="0"
     inkscape:zoom="1.204658"
     inkscape:cx="227.86549"
     inkscape:cy="227.86549"
     inkscape:window-x="0"
     inkscape:window-y="0"
     inkscape:window-maximized="1"
     inkscape:current-layer="Capa_1" /><g
     id="g3"
     transform="scale(0.12287951,0.12287951)"><rect
       x="0"
       y="0"
       style="fill:#50abf1"
       width="455.73099"
       height="455.73099"
       id="rect5" /><path
       style="fill:#ffffff"
       d="m 60.377,337.822 c 30.33,19.236 66.308,30.368 104.875,30.368 108.349,0 196.18,-87.841 196.18,-196.18 0,-2.705 -0.057,-5.39 -0.161,-8.067 3.919,-3.084 28.157,-22.511 34.098,-35 0,0 -19.683,8.18 -38.947,10.107 -0.038,0 -0.085,0.009 -0.123,0.009 0,0 0.038,-0.019 0.104,-0.066 1.775,-1.186 26.591,-18.079 29.951,-38.207 0,0 -13.922,7.431 -33.415,13.932 -3.227,1.072 -6.605,2.126 -10.088,3.103 -12.565,-13.41 -30.425,-21.78 -50.25,-21.78 -38.027,0 -68.841,30.805 -68.841,68.803 0,5.362 0.617,10.581 1.784,15.592 -5.314,-0.218 -86.237,-4.755 -141.289,-71.423 0,0 -32.902,44.917 19.607,91.105 0,0 -15.962,-0.636 -29.733,-8.864 0,0 -5.058,54.416 54.407,68.329 0,0 -11.701,4.432 -30.368,1.272 0,0 10.439,43.968 63.271,48.077 0,0 -41.777,37.74 -101.081,28.885 l 0.019,0.005 z"
       id="path7"
       inkscape:connector-curvature="0" /></g><g
     id="g9"
     transform="translate(0,-399.73098)" /><g
     id="g11"
     transform="translate(0,-399.73098)" /><g
     id="g13"
     transform="translate(0,-399.73098)" /><g
     id="g15"
     transform="translate(0,-399.73098)" /><g
     id="g17"
     transform="translate(0,-399.73098)" /><g
     id="g19"
     transform="translate(0,-399.73098)" /><g
     id="g21"
     transform="translate(0,-399.73098)" /><g
     id="g23"
     transform="translate(0,-399.73098)" /><g
     id="g25"
     transform="translate(0,-399.73098)" /><g
     id="g27"
     transform="translate(0,-399.73098)" /><g
     id="g29"
     transform="translate(0,-399.73098)" /><g
     id="g31"
     transform="translate(0,-399.73098)" /><g
     id="g33"
     transform="translate(0,-399.73098)" /><g
     id="g35"
     transform="translate(0,-399.73098)" /><g
     id="g37"
     transform="translate(0,-399.73098)" /></svg>