<svg xmlns="http://www.w3.org/2000/svg" width="34.133" height="34.133" viewBox="0 0 32.000002 32.000001"><path fill="#fff" d="M.125.026h31.579V31.9H.124z"/><path fill="#c30007" d="M.037 0h31.882v6.578H.037z"/><path fill="#1665ac" d="M0 10.574h21.82v6.186H0zM10.608 16.76H32v5.539H10.608z"/><path fill="#c30007" d="M1.529 21.54h7.807v3.72H1.529zM13.397 26.587h18.42V32h-18.42z"/><path fill="#1665ac" d="M.107 28.61h4.56v3.276H.108z"/><path d="M11.472 15.043h9.509v6.544h-9.51z"/><path d="M20.983 15.064l-4.746.013-4.8.017 2.35-2.044 2.371-2.07 2.396 2.032z"/><path fill="#1665ac" d="M15.361 17.237h1.744v4.384h-1.744z"/><path d="M18.488 12.295h1.59v2.064h-1.59z"/></svg>