<svg xmlns="http://www.w3.org/2000/svg" viewBox="0 0 56.000002 56.000002" width="56" height="56"><path fill="#50abf1" d="M0 0h56v56H0z"/><path d="M7.42 41.511a23.983 23.983 0 0 0 12.886 3.732c13.314 0 24.107-10.794 24.107-24.106 0-.333-.007-.663-.02-.992.481-.379 3.46-2.766 4.19-4.3 0 0-2.419 1.005-4.786 1.241l-.015.002.013-.009c.218-.145 3.267-2.221 3.68-4.694 0 0-1.71.913-4.106 1.711-.397.132-.812.262-1.24.382a8.435 8.435 0 0 0-6.174-2.677c-4.673 0-8.46 3.786-8.46 8.455 0 .659.076 1.3.22 1.916-.653-.027-10.597-.584-17.362-8.777 0 0-4.043 5.52 2.41 11.195 0 0-1.962-.078-3.654-1.089 0 0-.622 6.687 6.685 8.396 0 0-1.437.545-3.731.157 0 0 1.283 5.403 7.775 5.907 0 0-5.134 4.638-12.421 3.55h.002z" fill="#fff"/></svg>